<?xml version="1.0" encoding="utf-8"?>
<?xml-stylesheet type="text/xsl" href="rss1.xsl"?>
<rss version="2.0" xmlns:atom="http://www.w3.org/2005/Atom" xmlns:content="http://purl.org/rss/1.0/modules/content/" xmlns:dc="http://purl.org/dc/elements/1.1/" xmlns:media="http://search.yahoo.com/mrss/">
<channel>
 <title>Getty</title>
 <link>http://www.gettyimg.com/</link>
 <atom:link href="http://www.gettyimg.com/" rel="self" type="application/rss+xml" />

 
                <item>
                <title><![CDATA[【HD Live Performances】UHDTV 4K - Gloria Groove - Live @ The Town 2023 UHDTV H265 2160p DD2.0-ilya2129]]></title>
                <link><![CDATA[https://sharemania.us/threads/gloria-groove-live-the-town-2023-uhdtv-h265-2160p-dd2-0-ilya2129.228433/]]></link>
                <description><![CDATA[<article>
<blockquote class="messageText SelectQuoteContainer ugc baseHtml">
<div style="text-align: center"><img src="https://i122.fastpic.org/big/2023/0903/f2/ce9f496df0f384cc9c966a9eba2bd3f2.png" class="bbCodeImage LbImage" alt="[​IMG]" data-url="https://i122.fastpic.org/big/2023/0903/f2/ce9f496df0f384cc9c966a9eba2bd3f2.png" style=""><br>
<br>
<a href="https://postimg.cc/Wh1z6SRW" target="_blank" class="externalLink" rel="nofollow"><img src="https://i.postimg.cc/Wh1z6SRW/vlcsnap-2023-09-15-11h05m11s001.png" class="bbCodeImage LbImage" alt="[​IMG]" data-url="https://i.postimg.cc/Wh1z6SRW/vlcsnap-2023-09-15-11h05m11s001.png"></a> <a href="https://postimg.cc/34Zr20tQ" target="_blank" class="externalLink" rel="nofollow"><img src="https://i.postimg.cc/34Zr20tQ/vlcsnap-2023-09-15-11h05m13s224.png" class="bbCodeImage LbImage" alt="[​IMG]" data-url="https://i.postimg.cc/34Zr20tQ/vlcsnap-2023-09-15-11h05m13s224.png"></a> <a href="https://postimg.cc/fkwRD5bz" target="_blank" class="externalLink" rel="nofollow"><img src="https://i.postimg.cc/fkwRD5bz/vlcsnap-2023-09-15-11h05m15s550.png" class="bbCodeImage LbImage" alt="[​IMG]" data-url="https://i.postimg.cc/fkwRD5bz/vlcsnap-2023-09-15-11h05m15s550.png"></a> <a href="https://postimg.cc/Ln54ZXfG" target="_blank" class="externalLink" rel="nofollow"><img src="https://i.postimg.cc/Ln54ZXfG/vlcsnap-2023-09-15-11h05m18s057.png" class="bbCodeImage LbImage" alt="[​IMG]" data-url="https://i.postimg.cc/Ln54ZXfG/vlcsnap-2023-09-15-11h05m18s057.png"></a> <a href="https://postimg.cc/w1SBzp1Z" target="_blank" class="externalLink" rel="nofollow"><img src="https://i.postimg.cc/w1SBzp1Z/vlcsnap-2023-09-15-11h05m20s454.png" class="bbCodeImage LbImage" alt="[​IMG]" data-url="https://i.postimg.cc/w1SBzp1Z/vlcsnap-2023-09-15-11h05m20s454.png"></a> <a href="https://postimg.cc/1V5mBRdn" target="_blank" class="externalLink" rel="nofollow"><img src="https://i.postimg.cc/1V5mBRdn/vlcsnap-2023-09-15-11h05m23s301.png" class="bbCodeImage LbImage" alt="[​IMG]" data-url="https://i.postimg.cc/1V5mBRdn/vlcsnap-2023-09-15-11h05m23s301.png"></a> <br>
<br>
<i><br>
Act 1: A voz de Gloria<br>
SOBREVIVI<br>
A tua voz / If I Ain't Got You<br>
Nossa Música<br>
Samba in Paris<br>
<br>
Act 2: A ambição de Greta<br>
LEILÃO<br>
Magenta Ca$H<br>
GRETA<br>
A CAMINHADA<br>
Radar / Wonderful<br>
<br>
Act 3: O sol da leste<br>
Bumbum de ouro<br>
Vem quente que eu estou fervendo / MIL GRAU / FOGO NO BARRACO<br>
Yoyo<br>
<br>
Act 4: Futuro Fluxo (with Ruxell DJ)<br>
PROIBIDONA<br>
Furduncin<br>
A QUEDA<br>
AMEIANOITE<br>
BONEKINHA<br>
SFM<br>
VERMELHO<br>
Coisa boa<br>
</i><br>
​</div><br>
<div class="bbCodeBlock bbCodeCode">
<div class="type">Code:</div>
<pre>General
ID                                       : 17 (0x11)
Complete name                            : D:\Gloria Groove - Live @ The Town 2023 UHDTV H265 2160p DD2.0-ilya2129.ts
Format                                   : MPEG-TS
File size                                : 6.74 GiB
Duration                                 : 54 min 5 s
Overall bit rate mode                    : Variable
Overall bit rate                         : 17.8 Mb/s
Frame rate                               : 59.940 FPS

Video
ID                                       : 4368 (0x1110)
Menu ID                                  : 442 (0x1BA)
Format                                   : HEVC
Format/Info                              : High Efficiency Video Coding
Format profile                           : Main 10@L5.1@Main
Codec ID                                 : 36
Duration                                 : 54 min 5 s
Bit rate                                 : 16.8 Mb/s
Maximum bit rate                         : 17.7 Mb/s
Width                                    : 3 840 pixels
Height                                   : 2 160 pixels
Display aspect ratio                     : 16:9
Frame rate                               : 59.940 (60000/1001) FPS
Color space                              : YUV
Chroma subsampling                       : 4:2:0 (Type 0)
Bit depth                                : 10 bits
Bits/(Pixel*Frame)                       : 0.034
Stream size                              : 6.33 GiB (94%)
Color range                              : Limited
Color primaries                          : BT.709
Transfer characteristics                 : BT.709
Matrix coefficients                      : BT.709

Audio
ID                                       : 4369 (0x1111)
Menu ID                                  : 442 (0x1BA)
Format                                   : AC-3
Format/Info                              : Audio Coding 3
Commercial name                          : Dolby Digital
Codec ID                                 : 6
Duration                                 : 54 min 5 s
Bit rate mode                            : Constant
Bit rate                                 : 192 kb/s
Maximum bit rate                         : 203 kb/s
Channel(s)                               : 2 channels
Channel layout                           : L R
Sampling rate                            : 48.0 kHz
Frame rate                               : 31.250 FPS (1536 SPF)
Compression mode                         : Lossy
Delay relative to video                  : 18 ms
Stream size                              : 74.3 MiB (1%)
Language                                 : Portuguese
Service kind                             : Complete Main

</pre>
</div>
<div class="bbCodeBlock bbCodeVfcHH HiddenContent">
<div class="attribution type">Hidden Content:</div>
<blockquote>You must reply before you can see the hidden data contained here.</blockquote>
</div>
<div class="messageTextEndMarker">&nbsp;</div>
</blockquote>
</article>]]></description>
                <author><![CDATA[ilya2129]]></author>
                </item>

                
                <item>
                <title><![CDATA[【HD Live Performances】UHDTV 4K - Kim Petras - Live @ The Town 2023 UHDTV H265 2160p DD2.0-ilya2129]]></title>
                <link><![CDATA[https://sharemania.us/threads/kim-petras-live-the-town-2023-uhdtv-h265-2160p-dd2-0-ilya2129.228432/]]></link>
                <description><![CDATA[<article>
<blockquote class="messageText SelectQuoteContainer ugc baseHtml">
<div style="text-align: center"><img src="https://i122.fastpic.org/big/2023/0903/f2/ce9f496df0f384cc9c966a9eba2bd3f2.png" class="bbCodeImage LbImage" alt="[​IMG]" data-url="https://i122.fastpic.org/big/2023/0903/f2/ce9f496df0f384cc9c966a9eba2bd3f2.png" style=""><br>
<br>
<a href="https://postimg.cc/T5yjKxcm" target="_blank" class="externalLink" rel="nofollow"><img src="https://i.postimg.cc/T5yjKxcm/vlcsnap-2023-09-15-11h03m06s120.png" class="bbCodeImage LbImage" alt="[​IMG]" data-url="https://i.postimg.cc/T5yjKxcm/vlcsnap-2023-09-15-11h03m06s120.png"></a> <a href="https://postimg.cc/KkWBSVyY" target="_blank" class="externalLink" rel="nofollow"><img src="https://i.postimg.cc/KkWBSVyY/vlcsnap-2023-09-15-11h03m08s302.png" class="bbCodeImage LbImage" alt="[​IMG]" data-url="https://i.postimg.cc/KkWBSVyY/vlcsnap-2023-09-15-11h03m08s302.png"></a> <a href="https://postimg.cc/WFzgyVCK" target="_blank" class="externalLink" rel="nofollow"><img src="https://i.postimg.cc/WFzgyVCK/vlcsnap-2023-09-15-11h03m10s678.png" class="bbCodeImage LbImage" alt="[​IMG]" data-url="https://i.postimg.cc/WFzgyVCK/vlcsnap-2023-09-15-11h03m10s678.png"></a> <a href="https://postimg.cc/pmQfhqK0" target="_blank" class="externalLink" rel="nofollow"><img src="https://i.postimg.cc/pmQfhqK0/vlcsnap-2023-09-15-11h03m12s328.png" class="bbCodeImage LbImage" alt="[​IMG]" data-url="https://i.postimg.cc/pmQfhqK0/vlcsnap-2023-09-15-11h03m12s328.png"></a> <a href="https://postimg.cc/XZVwwd8n" target="_blank" class="externalLink" rel="nofollow"><img src="https://i.postimg.cc/XZVwwd8n/vlcsnap-2023-09-15-11h03m14s447.png" class="bbCodeImage LbImage" alt="[​IMG]" data-url="https://i.postimg.cc/XZVwwd8n/vlcsnap-2023-09-15-11h03m14s447.png"></a> <a href="https://postimg.cc/v4w7Zpxg" target="_blank" class="externalLink" rel="nofollow"><img src="https://i.postimg.cc/v4w7Zpxg/vlcsnap-2023-09-15-11h03m16s481.png" class="bbCodeImage LbImage" alt="[​IMG]" data-url="https://i.postimg.cc/v4w7Zpxg/vlcsnap-2023-09-15-11h03m16s481.png"></a> <br>
<br>
<i><br>
Alone (2.0 Remix)<br>
Slut Pop<br>
Treat Me Like a Slut<br>
XXX<br>
Superpower Bitch<br>
Throat Goat<br>
They Wanna Fuck<br>
Hillside Boys<br>
All the Time<br>
I Don't Want It at All<br>
Hit It From the Back<br>
Can't Do Better<br>
Sweet Spot<br>
Do Me<br>
Icy<br>
Coconuts<br>
Unholy (Sam Smith cover)<br>
Heart to Break<br>
</i><br>
​</div><br>
<div class="bbCodeBlock bbCodeCode">
<div class="type">Code:</div>
<pre>General
ID                                       : 17 (0x11)
Complete name                            : D:\Kim Petras - Live @ The Town 2023 UHDTV H265 2160p DD2.0-ilya2129.ts
Format                                   : MPEG-TS
File size                                : 7.00 GiB
Duration                                 : 56 min 11 s
Overall bit rate mode                    : Variable
Overall bit rate                         : 17.8 Mb/s
Frame rate                               : 59.940 FPS

Video
ID                                       : 4368 (0x1110)
Menu ID                                  : 442 (0x1BA)
Format                                   : HEVC
Format/Info                              : High Efficiency Video Coding
Format profile                           : Main 10@L5.1@Main
Codec ID                                 : 36
Duration                                 : 56 min 11 s
Bit rate                                 : 16.8 Mb/s
Maximum bit rate                         : 17.7 Mb/s
Width                                    : 3 840 pixels
Height                                   : 2 160 pixels
Display aspect ratio                     : 16:9
Frame rate                               : 59.940 (60000/1001) FPS
Color space                              : YUV
Chroma subsampling                       : 4:2:0 (Type 0)
Bit depth                                : 10 bits
Bits/(Pixel*Frame)                       : 0.034
Stream size                              : 6.58 GiB (94%)
Color range                              : Limited
Color primaries                          : BT.709
Transfer characteristics                 : BT.709
Matrix coefficients                      : BT.709

Audio
ID                                       : 4369 (0x1111)
Menu ID                                  : 442 (0x1BA)
Format                                   : AC-3
Format/Info                              : Audio Coding 3
Commercial name                          : Dolby Digital
Codec ID                                 : 6
Duration                                 : 56 min 11 s
Bit rate mode                            : Constant
Bit rate                                 : 192 kb/s
Maximum bit rate                         : 203 kb/s
Channel(s)                               : 2 channels
Channel layout                           : L R
Sampling rate                            : 48.0 kHz
Frame rate                               : 31.250 FPS (1536 SPF)
Compression mode                         : Lossy
Delay relative to video                  : 19 ms
Stream size                              : 77.2 MiB (1%)
Language                                 : Portuguese
Service kind                             : Complete Main
</pre>
</div>
<div class="bbCodeBlock bbCodeVfcHH HiddenContent">
<div class="attribution type">Hidden Content:</div>
<blockquote>You must reply before you can see the hidden data contained here.</blockquote>
</div>
<div class="messageTextEndMarker">&nbsp;</div>
</blockquote>
</article>]]></description>
                <author><![CDATA[ilya2129]]></author>
                </item>

                
                <item>
                <title><![CDATA[【HD Live Performances】UHDTV 4K - H.E.R. - Live @ The Town 2023 UHDTV H265 2160p DD2.0-ilya2129]]></title>
                <link><![CDATA[https://sharemania.us/threads/h-e-r-live-the-town-2023-uhdtv-h265-2160p-dd2-0-ilya2129.228434/]]></link>
                <description><![CDATA[<article>
<blockquote class="messageText SelectQuoteContainer ugc baseHtml">
<div style="text-align: center"><img src="https://i122.fastpic.org/big/2023/0903/f2/ce9f496df0f384cc9c966a9eba2bd3f2.png" class="bbCodeImage LbImage" alt="[​IMG]" data-url="https://i122.fastpic.org/big/2023/0903/f2/ce9f496df0f384cc9c966a9eba2bd3f2.png" style=""><br>
<br>
<a href="https://postimg.cc/rdQYW85Y" target="_blank" class="externalLink" rel="nofollow"><img src="https://i.postimg.cc/rdQYW85Y/vlcsnap-2023-09-15-11h05m40s298.png" class="bbCodeImage LbImage" alt="[​IMG]" data-url="https://i.postimg.cc/rdQYW85Y/vlcsnap-2023-09-15-11h05m40s298.png"></a> <a href="https://postimg.cc/1g5vyLb0" target="_blank" class="externalLink" rel="nofollow"><img src="https://i.postimg.cc/1g5vyLb0/vlcsnap-2023-09-15-11h05m42s333.png" class="bbCodeImage LbImage" alt="[​IMG]" data-url="https://i.postimg.cc/1g5vyLb0/vlcsnap-2023-09-15-11h05m42s333.png"></a> <a href="https://postimg.cc/xkxt86Sw" target="_blank" class="externalLink" rel="nofollow"><img src="https://i.postimg.cc/xkxt86Sw/vlcsnap-2023-09-15-11h05m44s097.png" class="bbCodeImage LbImage" alt="[​IMG]" data-url="https://i.postimg.cc/xkxt86Sw/vlcsnap-2023-09-15-11h05m44s097.png"></a> <a href="https://postimg.cc/87Gy0FH0" target="_blank" class="externalLink" rel="nofollow"><img src="https://i.postimg.cc/87Gy0FH0/vlcsnap-2023-09-15-11h05m45s768.png" class="bbCodeImage LbImage" alt="[​IMG]" data-url="https://i.postimg.cc/87Gy0FH0/vlcsnap-2023-09-15-11h05m45s768.png"></a> <a href="https://postimg.cc/BjCh9q7Q" target="_blank" class="externalLink" rel="nofollow"><img src="https://i.postimg.cc/BjCh9q7Q/vlcsnap-2023-09-15-11h05m47s596.png" class="bbCodeImage LbImage" alt="[​IMG]" data-url="https://i.postimg.cc/BjCh9q7Q/vlcsnap-2023-09-15-11h05m47s596.png"></a> <a href="https://postimg.cc/KkCfr4jQ" target="_blank" class="externalLink" rel="nofollow"><img src="https://i.postimg.cc/KkCfr4jQ/vlcsnap-2023-09-15-11h05m49s599.png" class="bbCodeImage LbImage" alt="[​IMG]" data-url="https://i.postimg.cc/KkCfr4jQ/vlcsnap-2023-09-15-11h05m49s599.png"></a> <br>
<br>
<i><br>
WE GOING CRAZY<br>
Do to Me<br>
Slide<br>
Intimidated<br>
B.S.<br>
Comfortable<br>
Damage<br>
Focus<br>
Best Part<br>
Hard Place<br>
Make It Rain<br>
The Journey<br>
I Love Rock 'n' Roll / We Will Rock You / Glory<br>
Are You Gonna Go My Way<br>
We Made It<br>
</i><br>
​</div><br>
<div class="bbCodeBlock bbCodeCode">
<div class="type">Code:</div>
<pre>General
ID                                       : 17 (0x11)
Complete name                            : D:\H.E.R. - Live @ The Town 2023 UHDTV H265 2160p DD2.0-ilya2129.ts
Format                                   : MPEG-TS
File size                                : 7.69 GiB
Duration                                 : 1 h 1 min
Overall bit rate mode                    : Variable
Overall bit rate                         : 17.8 Mb/s
Frame rate                               : 59.940 FPS

Video
ID                                       : 4368 (0x1110)
Menu ID                                  : 442 (0x1BA)
Format                                   : HEVC
Format/Info                              : High Efficiency Video Coding
Format profile                           : Main 10@L5.1@Main
Codec ID                                 : 36
Duration                                 : 1 h 1 min
Bit rate                                 : 16.8 Mb/s
Maximum bit rate                         : 17.7 Mb/s
Width                                    : 3 840 pixels
Height                                   : 2 160 pixels
Display aspect ratio                     : 16:9
Frame rate                               : 59.940 (60000/1001) FPS
Color space                              : YUV
Chroma subsampling                       : 4:2:0 (Type 0)
Bit depth                                : 10 bits
Bits/(Pixel*Frame)                       : 0.034
Stream size                              : 7.23 GiB (94%)
Color range                              : Limited
Color primaries                          : BT.709
Transfer characteristics                 : BT.709
Matrix coefficients                      : BT.709

Audio
ID                                       : 4369 (0x1111)
Menu ID                                  : 442 (0x1BA)
Format                                   : AC-3
Format/Info                              : Audio Coding 3
Commercial name                          : Dolby Digital
Codec ID                                 : 6
Duration                                 : 1 h 1 min
Bit rate mode                            : Constant
Bit rate                                 : 192 kb/s
Maximum bit rate                         : 203 kb/s
Channel(s)                               : 2 channels
Channel layout                           : L R
Sampling rate                            : 48.0 kHz
Frame rate                               : 31.250 FPS (1536 SPF)
Compression mode                         : Lossy
Delay relative to video                  : 23 ms
Stream size                              : 84.8 MiB (1%)
Language                                 : Portuguese
Service kind                             : Complete Main
</pre>
</div>
<div class="bbCodeBlock bbCodeVfcHH HiddenContent">
<div class="attribution type">Hidden Content:</div>
<blockquote>You must reply before you can see the hidden data contained here.</blockquote>
</div>
<div class="messageTextEndMarker">&nbsp;</div>
</blockquote>
</article>]]></description>
                <author><![CDATA[ilya2129]]></author>
                </item>

                </channel></rss>